<svg xmlns="http://www.w3.org/2000/svg" viewBox="0 0 15 13">
    <path d="M9.758,6.500 L13.728,10.029 C14.347,10.580 14.403,11.528 13.853,12.147 C13.302,12.766 12.354,12.822 11.735,12.272 L7.500,8.507 L3.265,12.272 C2.645,12.822 1.697,12.766 1.147,12.147 C0.597,11.528 0.652,10.580 1.271,10.029 L5.242,6.500 L1.271,2.970 C0.652,2.420 0.597,1.472 1.147,0.853 C1.697,0.233 2.645,0.178 3.265,0.728 L7.500,4.493 L11.735,0.728 C12.354,0.178 13.302,0.233 13.853,0.853 C14.403,1.472 14.347,2.420 13.728,2.970 L9.758,6.500 Z"/>
</svg>
