<svg xmlns="http://www.w3.org/2000/svg" viewBox="0 0 23 22">
    <path d="M21.585,9.498 L20.539,8.452 C20.176,8.108 19.753,7.936 19.270,7.936 C18.777,7.936 18.358,8.108 18.014,8.452 L13.912,12.553 L13.912,2.732 C13.912,2.249 13.736,1.830 13.382,1.476 C13.029,1.123 12.610,0.946 12.127,0.946 L10.341,0.946 C9.857,0.946 9.439,1.123 9.085,1.476 C8.732,1.830 8.555,2.249 8.555,2.732 L8.555,12.553 L4.454,8.452 C4.110,8.108 3.691,7.936 3.198,7.936 C2.714,7.936 2.291,8.108 1.929,8.452 L0.896,9.498 C0.543,9.852 0.366,10.275 0.366,10.768 C0.366,11.270 0.543,11.688 0.896,12.023 L9.978,21.119 C10.322,21.463 10.741,21.635 11.234,21.635 C11.717,21.635 12.141,21.463 12.503,21.119 L21.585,12.023 C21.929,11.679 22.102,11.261 22.102,10.768 C22.102,10.284 21.929,9.861 21.585,9.498 L21.585,9.498 Z"/>
</svg>
