<svg xmlns="http://www.w3.org/2000/svg" viewBox="0 0 48 43">
    <path d="M7.341,6.378 L1.466,6.378 C1.221,6.378 1.020,6.457 0.863,6.614 C0.705,6.771 0.627,6.972 0.627,7.217 L0.627,12.253 C0.627,12.498 0.705,12.699 0.863,12.856 C1.020,13.013 1.221,13.092 1.466,13.092 L7.341,13.092 C8.110,13.092 8.823,13.219 9.479,13.472 C10.134,13.726 10.685,14.032 11.131,14.390 C11.577,14.749 12.023,15.243 12.469,15.872 C12.914,16.502 13.268,17.057 13.531,17.538 C13.793,18.019 14.116,18.652 14.501,19.439 C15.847,16.275 17.045,13.888 18.094,12.279 C15.297,8.345 11.712,6.378 7.341,6.378 L7.341,6.378 ZM47.391,32.632 L39.024,24.265 C38.814,24.091 38.604,24.003 38.395,24.003 C38.150,24.003 37.949,24.082 37.791,24.239 C37.634,24.396 37.555,24.597 37.555,24.842 L37.555,29.878 L30.841,29.878 C30.071,29.878 29.359,29.751 28.703,29.498 C28.048,29.244 27.497,28.938 27.051,28.580 C26.605,28.221 26.159,27.727 25.713,27.098 C25.268,26.468 24.914,25.913 24.651,25.432 C24.389,24.952 24.065,24.318 23.681,23.531 C22.334,26.678 21.145,29.065 20.114,30.691 C20.586,31.373 21.075,31.981 21.583,32.514 C22.090,33.047 22.570,33.515 23.025,33.917 C23.480,34.319 23.996,34.669 24.573,34.966 C25.150,35.264 25.657,35.513 26.094,35.713 C26.531,35.915 27.081,36.077 27.746,36.199 C28.410,36.321 28.970,36.413 29.425,36.474 C29.879,36.536 30.500,36.579 31.287,36.605 C32.074,36.631 32.712,36.640 33.202,36.631 C33.691,36.623 34.399,36.614 35.326,36.605 C36.253,36.597 36.995,36.592 37.555,36.592 L37.555,41.628 C37.555,41.855 37.638,42.052 37.804,42.218 C37.970,42.384 38.167,42.467 38.395,42.467 C38.639,42.467 38.840,42.388 38.998,42.231 L47.391,33.838 C47.548,33.681 47.627,33.480 47.627,33.235 C47.627,32.990 47.548,32.789 47.391,32.632 L47.391,32.632 ZM47.391,9.132 L39.024,0.765 C38.814,0.591 38.604,0.503 38.395,0.503 C38.150,0.503 37.949,0.582 37.791,0.739 C37.634,0.896 37.555,1.097 37.555,1.342 L37.555,6.378 L30.841,6.378 C29.652,6.378 28.533,6.522 27.484,6.811 C26.435,7.099 25.504,7.466 24.691,7.912 C23.878,8.358 23.091,8.957 22.330,9.709 C21.570,10.461 20.922,11.187 20.389,11.886 C19.856,12.585 19.296,13.459 18.711,14.508 C18.125,15.558 17.653,16.475 17.294,17.262 C16.936,18.049 16.503,19.020 15.996,20.174 C15.192,22.080 14.510,23.575 13.950,24.659 C13.531,25.463 13.137,26.140 12.770,26.691 C12.403,27.242 11.957,27.780 11.433,28.304 C10.908,28.829 10.305,29.222 9.623,29.484 C8.941,29.747 8.180,29.878 7.341,29.878 L1.466,29.878 C1.221,29.878 1.020,29.957 0.863,30.114 C0.705,30.271 0.627,30.472 0.627,30.717 L0.627,35.753 C0.627,35.998 0.705,36.199 0.863,36.356 C1.020,36.513 1.221,36.592 1.466,36.592 L7.341,36.592 C8.530,36.592 9.649,36.448 10.698,36.159 C11.747,35.871 12.678,35.504 13.491,35.058 C14.304,34.612 15.091,34.013 15.852,33.261 C16.612,32.510 17.259,31.784 17.793,31.084 C18.326,30.385 18.885,29.511 19.471,28.462 C20.057,27.412 20.529,26.494 20.888,25.708 C21.246,24.921 21.679,23.950 22.186,22.796 C22.990,20.891 23.672,19.396 24.232,18.311 C24.651,17.507 25.045,16.830 25.412,16.279 C25.779,15.728 26.225,15.190 26.749,14.666 C27.274,14.141 27.877,13.748 28.559,13.486 C29.241,13.223 30.002,13.092 30.841,13.092 L37.555,13.092 L37.555,18.128 C37.555,18.355 37.638,18.552 37.804,18.718 C37.970,18.884 38.167,18.967 38.395,18.967 C38.639,18.967 38.840,18.888 38.998,18.731 L47.391,10.338 C47.548,10.181 47.627,9.980 47.627,9.735 C47.627,9.490 47.548,9.289 47.391,9.132 L47.391,9.132 Z"/>
</svg>
