<svg xmlns="http://www.w3.org/2000/svg" viewBox="0 0 48 38">
    <path d="M24.127,18.842 C24.127,19.297 24.293,19.690 24.625,20.022 C24.957,20.355 25.350,20.521 25.805,20.521 C26.260,20.521 26.653,20.355 26.986,20.022 C27.317,19.690 27.484,19.297 27.484,18.842 C27.484,18.388 27.317,17.994 26.986,17.662 C26.653,17.330 26.260,17.164 25.805,17.164 C25.350,17.164 24.957,17.330 24.625,17.662 C24.293,17.994 24.127,18.388 24.127,18.842 ZM46.971,8.403 C47.460,8.054 47.679,7.564 47.627,6.935 C47.539,6.323 47.233,5.877 46.709,5.597 L43.352,3.919 C43.124,3.796 42.870,3.735 42.591,3.735 C42.293,3.735 42.023,3.805 41.778,3.945 L23.681,14.095 L20.796,12.364 C20.656,12.294 20.551,12.250 20.481,12.233 C20.726,11.376 20.813,10.528 20.743,9.689 C20.621,8.342 20.131,7.049 19.275,5.807 C18.418,4.566 17.264,3.490 15.813,2.581 C13.505,1.112 11.083,0.378 8.547,0.378 C6.152,0.378 4.211,1.069 2.725,2.450 C1.973,3.132 1.418,3.945 1.059,4.889 C0.701,5.833 0.566,6.821 0.653,7.853 C0.775,9.182 1.265,10.467 2.122,11.708 C2.978,12.950 4.124,14.034 5.558,14.960 C7.866,16.429 10.296,17.164 12.849,17.164 C14.300,17.164 15.620,16.893 16.809,16.350 C16.967,16.578 17.159,16.770 17.386,16.927 L20.586,18.842 L17.386,20.757 C17.159,20.914 16.967,21.107 16.809,21.334 C15.620,20.792 14.300,20.521 12.849,20.521 C10.296,20.521 7.866,21.255 5.558,22.724 C4.124,23.651 2.978,24.735 2.122,25.976 C1.265,27.218 0.775,28.503 0.653,29.832 C0.461,31.982 1.151,33.792 2.725,35.261 C4.229,36.624 6.169,37.306 8.547,37.306 C11.083,37.306 13.505,36.572 15.813,35.103 C17.264,34.176 18.418,33.097 19.275,31.864 C20.131,30.631 20.621,29.342 20.743,27.996 C20.813,27.156 20.726,26.308 20.481,25.451 C20.551,25.434 20.656,25.390 20.796,25.320 L23.681,23.589 L41.778,33.739 C42.023,33.880 42.293,33.949 42.591,33.949 C42.870,33.949 43.124,33.888 43.352,33.766 L46.709,32.087 C47.233,31.808 47.539,31.362 47.627,30.749 C47.679,30.120 47.460,29.631 46.971,29.281 L33.674,18.842 L46.971,8.403 ZM12.849,12.967 C11.100,12.967 9.422,12.452 7.813,11.420 C6.397,10.528 5.470,9.505 5.033,8.351 C4.596,7.197 4.779,6.253 5.584,5.518 C6.266,4.889 7.253,4.574 8.547,4.574 C10.296,4.574 11.974,5.090 13.583,6.122 C14.999,7.013 15.926,8.036 16.363,9.190 C16.800,10.344 16.617,11.289 15.813,12.023 C15.131,12.652 14.143,12.967 12.849,12.967 L12.849,12.967 ZM8.547,33.110 C7.253,33.110 6.266,32.795 5.584,32.166 C4.779,31.431 4.596,30.487 5.033,29.333 C5.470,28.179 6.397,27.156 7.813,26.265 C9.422,25.233 11.100,24.717 12.849,24.717 C14.143,24.717 15.131,25.032 15.813,25.661 C16.617,26.396 16.800,27.340 16.363,28.494 C15.926,29.648 14.999,30.671 13.583,31.563 C11.974,32.594 10.296,33.110 8.547,33.110 L8.547,33.110 ZM18.488,15.249 C18.505,15.232 18.531,15.210 18.566,15.183 C18.601,15.157 18.636,15.127 18.671,15.092 C18.759,15.022 18.864,14.917 18.986,14.777 C19.108,14.637 19.196,14.541 19.248,14.488 L19.930,13.806 L22.002,15.039 L21.635,15.249 C21.058,15.599 20.770,16.088 20.770,16.718 L20.770,17.006 L18.252,15.485 L18.488,15.249 ZM19.930,23.878 L19.248,23.196 C19.178,23.126 19.082,23.021 18.960,22.881 C18.837,22.741 18.741,22.637 18.671,22.566 C18.584,22.497 18.523,22.444 18.488,22.409 L18.252,22.199 L22.448,19.681 L22.448,16.718 L42.591,5.414 L45.948,7.092 L26.645,22.199 L24.127,21.360 L19.930,23.878 ZM27.327,23.694 C27.519,23.625 27.632,23.563 27.667,23.511 L32.310,19.891 L45.948,30.592 L42.591,32.271 L27.327,23.694 Z"/>
</svg>
