<svg xmlns="http://www.w3.org/2000/svg" viewBox="0 0 44 44">
    <path d="M28.031,13.095 L35.716,5.411 L38.522,8.217 L30.838,15.902 L28.031,13.095 ZM42.089,7.037 L36.896,1.844 C36.582,1.529 36.188,1.372 35.716,1.372 C35.244,1.372 34.850,1.529 34.536,1.844 L0.807,35.573 C0.492,35.887 0.335,36.281 0.335,36.753 C0.335,37.225 0.492,37.618 0.807,37.933 L6.000,43.126 C6.315,43.441 6.708,43.598 7.180,43.598 C7.652,43.598 8.046,43.441 8.361,43.126 L42.089,9.397 C42.404,9.083 42.561,8.689 42.561,8.217 C42.561,7.745 42.404,7.352 42.089,7.037 L42.089,7.037 ZM6.341,0.664 L5.554,3.234 L2.984,4.021 L5.554,4.808 L6.341,7.378 L7.128,4.808 L9.698,4.021 L7.128,3.234 L6.341,0.664 ZM14.734,2.342 L13.160,7.483 L8.020,9.056 L13.160,10.630 L14.734,15.771 L16.308,10.630 L21.448,9.056 L16.308,7.483 L14.734,2.342 ZM39.912,17.449 L39.126,20.020 L36.555,20.806 L39.126,21.593 L39.912,24.164 L40.699,21.593 L43.270,20.806 L40.699,20.020 L39.912,17.449 ZM23.127,0.664 L22.340,3.234 L19.770,4.021 L22.340,4.808 L23.127,7.378 L23.914,4.808 L26.484,4.021 L23.914,3.234 L23.127,0.664 Z"/>
</svg>
