<svg xmlns="http://www.w3.org/2000/svg" viewBox="0 0 25 44">
    <path d="M22.946,11.115 C22.876,11.115 22.771,11.133 22.632,11.167 L12.246,13.738 L16.731,1.594 C16.818,1.420 16.862,1.262 16.862,1.122 C16.862,0.825 16.748,0.567 16.521,0.349 C16.293,0.130 16.013,0.021 15.681,0.021 L7.079,0.021 C6.799,0.021 6.554,0.099 6.344,0.257 C6.135,0.414 5.994,0.615 5.925,0.860 L0.653,22.498 C0.566,22.917 0.679,23.258 0.994,23.521 C1.221,23.713 1.492,23.809 1.807,23.809 C1.947,23.809 2.052,23.801 2.122,23.783 L12.770,21.134 L7.603,42.326 C7.533,42.605 7.573,42.868 7.721,43.113 C7.870,43.357 8.093,43.523 8.390,43.611 C8.565,43.646 8.687,43.664 8.757,43.664 C9.264,43.664 9.631,43.445 9.859,43.008 L24.022,12.662 C24.214,12.243 24.153,11.858 23.838,11.508 C23.576,11.246 23.278,11.115 22.946,11.115 L22.946,11.115 Z"/>
</svg>
