<svg xmlns="http://www.w3.org/2000/svg" viewBox="0 0 35 41">
    <path d="M22.999,31.284 C21.355,32.578 19.493,33.776 17.412,34.877 L17.412,5.056 L29.162,5.056 L29.162,21.842 C29.162,24.920 27.108,28.067 22.999,31.284 L22.999,31.284 ZM33.700,0.519 C33.367,0.187 32.974,0.021 32.520,0.021 L2.305,0.021 C1.850,0.021 1.457,0.187 1.125,0.519 C0.793,0.851 0.627,1.245 0.627,1.699 L0.627,21.842 C0.627,23.346 0.919,24.837 1.505,26.314 C2.091,27.792 2.817,29.103 3.682,30.248 C4.548,31.393 5.579,32.508 6.777,33.592 C7.975,34.676 9.081,35.577 10.095,36.294 C11.109,37.010 12.167,37.688 13.268,38.326 C14.370,38.964 15.152,39.397 15.616,39.624 C16.079,39.852 16.451,40.026 16.731,40.149 C16.940,40.254 17.167,40.306 17.412,40.306 C17.657,40.306 17.885,40.254 18.094,40.149 C18.374,40.026 18.746,39.852 19.209,39.624 C19.672,39.397 20.455,38.964 21.556,38.326 C22.658,37.688 23.716,37.010 24.730,36.294 C25.744,35.577 26.850,34.676 28.048,33.592 C29.245,32.508 30.277,31.393 31.143,30.248 C32.008,29.103 32.734,27.792 33.320,26.314 C33.905,24.837 34.198,23.346 34.198,21.842 L34.198,1.699 C34.198,1.245 34.032,0.851 33.700,0.519 Z"/>
</svg>
