<svg xmlns="http://www.w3.org/2000/svg" viewBox="0 0 16 13">
    <path d="M6.679,11.510 C6.666,11.476 6.644,11.447 6.613,11.425 C6.581,11.403 6.556,11.386 6.537,11.373 C6.518,11.360 6.481,11.351 6.428,11.344 C6.374,11.338 6.338,11.335 6.319,11.335 C6.300,11.335 6.259,11.335 6.195,11.335 C6.132,11.335 6.097,11.335 6.091,11.335 L3.359,11.335 C2.941,11.335 2.584,11.186 2.287,10.889 C1.990,10.592 1.841,10.234 1.841,9.817 L1.841,3.138 C1.841,2.721 1.990,2.364 2.287,2.066 C2.584,1.769 2.941,1.621 3.359,1.621 L6.395,1.621 C6.477,1.621 6.542,1.600 6.589,1.559 C6.636,1.518 6.668,1.456 6.684,1.374 C6.700,1.292 6.709,1.217 6.712,1.151 C6.715,1.085 6.714,1.001 6.708,0.900 C6.701,0.798 6.698,0.735 6.698,0.710 C6.698,0.628 6.668,0.557 6.608,0.496 C6.548,0.436 6.477,0.406 6.395,0.406 L3.359,0.406 C2.606,0.406 1.963,0.674 1.428,1.208 C0.894,1.742 0.627,2.386 0.627,3.138 L0.627,9.817 C0.627,10.570 0.894,11.213 1.428,11.747 C1.963,12.282 2.606,12.549 3.359,12.549 L6.395,12.549 C6.477,12.549 6.542,12.529 6.589,12.487 C6.636,12.446 6.668,12.385 6.684,12.302 C6.700,12.220 6.709,12.146 6.712,12.080 C6.715,12.013 6.714,11.929 6.708,11.828 C6.701,11.727 6.698,11.664 6.698,11.638 C6.698,11.588 6.692,11.545 6.679,11.510 ZM15.321,6.051 L10.161,0.890 C10.041,0.770 9.898,0.710 9.734,0.710 C9.569,0.710 9.427,0.770 9.307,0.890 C9.187,1.010 9.127,1.153 9.127,1.317 L9.127,4.049 L4.877,4.049 C4.712,4.049 4.570,4.109 4.450,4.229 C4.330,4.350 4.270,4.492 4.270,4.656 L4.270,8.299 C4.270,8.464 4.330,8.606 4.450,8.726 C4.570,8.846 4.712,8.906 4.877,8.906 L9.127,8.906 L9.127,11.638 C9.127,11.803 9.187,11.945 9.307,12.065 C9.427,12.186 9.569,12.246 9.734,12.246 C9.898,12.246 10.041,12.186 10.161,12.065 L15.321,6.905 C15.442,6.785 15.502,6.642 15.502,6.478 C15.502,6.313 15.442,6.171 15.321,6.051 L15.321,6.051 Z"/>
</svg>
