<svg xmlns="http://www.w3.org/2000/svg" viewBox="0 0 14 14">
    <path d="M13.955,10.542 C13.917,10.428 13.677,10.261 13.234,10.039 C13.114,9.970 12.943,9.875 12.722,9.754 C12.501,9.634 12.300,9.524 12.120,9.422 C11.940,9.321 11.770,9.223 11.612,9.128 C11.587,9.109 11.508,9.054 11.375,8.962 C11.242,8.871 11.130,8.803 11.038,8.758 C10.947,8.714 10.856,8.692 10.768,8.692 C10.641,8.692 10.483,8.782 10.294,8.962 C10.104,9.143 9.930,9.339 9.772,9.551 C9.614,9.762 9.446,9.958 9.269,10.139 C9.092,10.319 8.946,10.409 8.833,10.409 C8.776,10.409 8.705,10.393 8.619,10.362 C8.534,10.330 8.469,10.303 8.425,10.281 C8.380,10.259 8.305,10.215 8.197,10.148 C8.089,10.082 8.029,10.045 8.017,10.039 C7.150,9.559 6.407,9.008 5.787,8.388 C5.168,7.769 4.617,7.026 4.137,6.159 C4.130,6.146 4.094,6.086 4.028,5.979 C3.961,5.871 3.917,5.795 3.895,5.751 C3.873,5.707 3.846,5.642 3.814,5.557 C3.783,5.471 3.767,5.400 3.767,5.343 C3.767,5.229 3.857,5.084 4.037,4.907 C4.217,4.730 4.413,4.562 4.625,4.404 C4.837,4.246 5.033,4.072 5.213,3.882 C5.394,3.693 5.484,3.535 5.484,3.408 C5.484,3.319 5.462,3.229 5.417,3.138 C5.373,3.046 5.305,2.934 5.213,2.801 C5.122,2.668 5.066,2.589 5.047,2.564 C4.953,2.406 4.854,2.236 4.753,2.056 C4.652,1.876 4.541,1.675 4.421,1.454 C4.301,1.232 4.206,1.062 4.137,0.941 C3.915,0.499 3.748,0.258 3.634,0.220 C3.590,0.201 3.523,0.192 3.435,0.192 C3.264,0.192 3.041,0.224 2.766,0.287 C2.491,0.350 2.274,0.417 2.116,0.486 C1.800,0.619 1.465,1.005 1.111,1.643 C0.788,2.238 0.627,2.826 0.627,3.408 C0.627,3.579 0.638,3.745 0.660,3.906 C0.682,4.067 0.722,4.249 0.779,4.451 C0.835,4.654 0.881,4.804 0.916,4.902 C0.951,5.000 1.016,5.176 1.111,5.429 C1.205,5.682 1.262,5.836 1.281,5.893 C1.503,6.513 1.765,7.067 2.069,7.554 C2.568,8.363 3.250,9.199 4.113,10.063 C4.976,10.926 5.813,11.608 6.622,12.107 C7.109,12.411 7.663,12.673 8.282,12.895 C8.339,12.914 8.494,12.970 8.747,13.065 C9.000,13.160 9.176,13.225 9.274,13.260 C9.372,13.295 9.522,13.340 9.724,13.397 C9.927,13.454 10.109,13.494 10.270,13.516 C10.431,13.538 10.597,13.549 10.768,13.549 C11.350,13.549 11.938,13.388 12.532,13.065 C13.171,12.711 13.557,12.376 13.690,12.060 C13.759,11.902 13.826,11.685 13.889,11.410 C13.952,11.135 13.984,10.912 13.984,10.741 C13.984,10.653 13.974,10.586 13.955,10.542 L13.955,10.542 Z"/>
</svg>
