<svg xmlns="http://www.w3.org/2000/svg" viewBox="0 0 16 15">
    <path d="M7.912,9.906 C7.242,9.906 6.670,9.669 6.195,9.195 C5.721,8.720 5.484,8.148 5.484,7.478 C5.484,6.807 5.721,6.235 6.195,5.761 C6.670,5.286 7.242,5.049 7.912,5.049 C8.583,5.049 9.155,5.286 9.630,5.761 C10.104,6.235 10.341,6.807 10.341,7.478 C10.341,8.148 10.104,8.720 9.630,9.195 C9.155,9.669 8.583,9.906 7.912,9.906 ZM15.122,6.221 C15.072,6.154 15.005,6.115 14.923,6.102 L13.187,5.836 C13.092,5.533 12.962,5.223 12.798,4.907 C12.912,4.749 13.083,4.526 13.310,4.238 C13.538,3.950 13.699,3.740 13.794,3.607 C13.845,3.538 13.870,3.465 13.870,3.389 C13.870,3.300 13.848,3.231 13.804,3.180 C13.576,2.858 13.054,2.320 12.238,1.568 C12.162,1.504 12.083,1.473 12.001,1.473 C11.906,1.473 11.830,1.501 11.773,1.558 L10.426,2.573 C10.167,2.440 9.882,2.323 9.573,2.222 L9.307,0.477 C9.301,0.394 9.264,0.326 9.198,0.273 C9.131,0.219 9.054,0.192 8.965,0.192 L6.859,0.192 C6.676,0.192 6.562,0.281 6.518,0.458 C6.436,0.774 6.344,1.362 6.243,2.222 C5.945,2.317 5.658,2.437 5.380,2.583 L4.070,1.568 C3.988,1.504 3.906,1.473 3.824,1.473 C3.685,1.473 3.386,1.699 2.927,2.151 C2.469,2.603 2.157,2.943 1.993,3.171 C1.936,3.253 1.907,3.326 1.907,3.389 C1.907,3.465 1.939,3.541 2.002,3.617 C2.426,4.129 2.764,4.565 3.017,4.926 C2.859,5.217 2.736,5.508 2.647,5.799 L0.883,6.064 C0.813,6.077 0.753,6.118 0.703,6.188 C0.652,6.257 0.627,6.330 0.627,6.406 L0.627,8.512 C0.627,8.594 0.652,8.668 0.703,8.735 C0.753,8.801 0.820,8.841 0.902,8.853 L2.638,9.109 C2.726,9.419 2.856,9.732 3.027,10.049 C2.913,10.207 2.742,10.430 2.515,10.717 C2.287,11.005 2.126,11.215 2.031,11.348 C1.980,11.418 1.955,11.491 1.955,11.566 C1.955,11.649 1.977,11.721 2.021,11.785 C2.268,12.126 2.790,12.657 3.587,13.378 C3.656,13.448 3.735,13.483 3.824,13.483 C3.919,13.483 3.998,13.454 4.061,13.397 L5.398,12.382 C5.658,12.515 5.942,12.632 6.252,12.733 L6.518,14.479 C6.524,14.561 6.561,14.629 6.627,14.683 C6.693,14.736 6.771,14.763 6.859,14.763 L8.965,14.763 C9.149,14.763 9.263,14.675 9.307,14.498 C9.389,14.181 9.481,13.593 9.582,12.733 C9.879,12.638 10.167,12.518 10.445,12.373 L11.755,13.397 C11.843,13.454 11.925,13.483 12.001,13.483 C12.140,13.483 12.438,13.258 12.893,12.809 C13.348,12.360 13.661,12.019 13.832,11.785 C13.889,11.721 13.917,11.649 13.917,11.566 C13.917,11.484 13.886,11.405 13.823,11.329 C13.367,10.773 13.029,10.336 12.808,10.020 C12.934,9.786 13.057,9.498 13.178,9.157 L14.933,8.891 C15.008,8.879 15.072,8.838 15.122,8.768 C15.173,8.698 15.198,8.626 15.198,8.550 L15.198,6.444 C15.198,6.362 15.173,6.287 15.122,6.221 Z"/>
</svg>
